<svg width="192" height="192" viewBox="0 0 192 192" xmlns="http://www.w3.org/2000/svg">
  <rect x="0" y="0" width="192" height="192" rx="42" fill="#0D3349"/>
  <rect x="28" y="92" width="50" height="10" rx="5" fill="#ffffff"/>
  <rect x="114" y="92" width="50" height="10" rx="5" fill="#ffffff"/>
  <rect x="14" y="74" width="18" height="44" rx="5" fill="#ffffff" opacity="0.9"/>
  <rect x="4" y="80" width="12" height="32" rx="4" fill="#ffffff" opacity="0.55"/>
  <rect x="160" y="74" width="18" height="44" rx="5" fill="#ffffff" opacity="0.9"/>
  <rect x="176" y="80" width="12" height="32" rx="4" fill="#ffffff" opacity="0.55"/>
  <circle cx="96" cy="97" r="30" fill="#0D3349" stroke="#4ECDC4" stroke-width="3.5"/>
  <line x1="96" y1="97" x2="96" y2="72" stroke="#4ECDC4" stroke-width="2" stroke-linecap="round" opacity="0.5"/>
  <line x1="96" y1="122" x2="96" y2="97" stroke="#4ECDC4" stroke-width="2" stroke-linecap="round" opacity="0.5"/>
  <line x1="71" y1="97" x2="121" y2="97" stroke="#4ECDC4" stroke-width="2" stroke-linecap="round" opacity="0.5"/>
  <line x1="96" y1="97" x2="96" y2="82" stroke="#ffffff" stroke-width="2.5" stroke-linecap="round"/>
  <line x1="96" y1="97" x2="109" y2="97" stroke="#ffffff" stroke-width="2.5" stroke-linecap="round"/>
  <circle cx="96" cy="97" r="3.5" fill="#4ECDC4"/>
</svg>
